<?xml version="1.0" encoding="UTF-8"?>
<svg width="800" height="600" viewBox="0 0 800 600" fill="none" xmlns="http://www.w3.org/2000/svg">
  <!-- Background Rectangle -->
  <rect x="50" y="50" width="700" height="500" rx="8" fill="#4A90E2" fill-opacity="0.15"/>
  
  <!-- Header Bar -->
  <rect x="50" y="50" width="700" height="60" rx="8" fill="#2171CD" fill-opacity="0.2"/>
  
  <!-- Sidebar -->
  <rect x="50" y="50" width="200" height="500" rx="8" fill="#2171CD" fill-opacity="0.15"/>
  
  <!-- Content Area -->
  <rect x="280" y="140" width="440" height="180" rx="6" fill="#FFFFFF" stroke="#2171CD" stroke-width="1.5"/>
  <rect x="280" y="340" width="440" height="180" rx="6" fill="#FFFFFF" stroke="#2171CD" stroke-width="1.5"/>
  
  <!-- Menu Items -->
  <rect x="70" y="120" width="160" height="10" rx="2" fill="#2171CD" fill-opacity="0.2"/>
  <rect x="70" y="150" width="160" height="10" rx="2" fill="#2171CD" fill-opacity="0.2"/>
  <rect x="70" y="180" width="160" height="10" rx="2" fill="#2171CD" fill-opacity="0.2"/>
  
  <!-- Content Elements -->
  <rect x="300" y="160" width="200" height="20" rx="4" fill="#2171CD" fill-opacity="0.1"/>
  <rect x="300" y="200" width="400" height="100" rx="4" fill="#2171CD" fill-opacity="0.05"/>
  
  <rect x="300" y="360" width="200" height="20" rx="4" fill="#2171CD" fill-opacity="0.1"/>
  <rect x="300" y="400" width="400" height="100" rx="4" fill="#2171CD" fill-opacity="0.05"/>
</svg> 